<?xml version="1.0" encoding="UTF-8"?>
<svg id="Layer_1" xmlns="http://www.w3.org/2000/svg" version="1.1" viewBox="0 0 241.7 229.8">
  <!-- Generator: Adobe Illustrator 29.3.1, SVG Export Plug-In . SVG Version: 2.1.0 Build 151)  -->
  <path d="M213.7,5.9H27.9c-8.9,0-16.1,7.2-16.1,16.1v185.8c0,8.9,7.2,16.1,16.1,16.1h185.8c8.9,0,16.1-7.2,16.1-16.1V22c0-8.9-7.2-16.1-16.1-16.1ZM76.8,191.6h-32.8v-104.1h32.8v104.1ZM60.4,73.1c-10.4,0-18.9-7.9-18.9-18.8s8.5-18.8,18.9-18.8,18.9,8,18.9,18.8-8.5,18.8-18.9,18.8ZM197.6,191.7h-32.8v-56.9c0-16.8-7.1-22-16.3-22s-19.3,7.3-19.3,22.4v56.4h-32.8v-104.1h31.5v14.4h.4c3.2-6.4,14.2-17.4,31.1-17.4s38,10.8,38,42.6v64.4Z"/>
</svg>