<?xml version="1.0" encoding="UTF-8"?>
<svg id="Layer_2" data-name="Layer 2" xmlns="http://www.w3.org/2000/svg" viewBox="0 0 147.5 71.81">
  <defs>
    <style>
      .cls-1 {
        fill: none;
        stroke: #fff;
        stroke-linecap: round;
        stroke-linejoin: round;
      }
    </style>
  </defs>
  <g id="Layer_1-2" data-name="Layer 1">
    <g>
      <path class="cls-1" d="M8.04,33.88c-.14-.86-.59-3.52-.27-7.05.24-2.41,1-5.61,1.6-7.57"/>
      <path class="cls-1" d="M.5,5.04c3.32,8.95,6.58,18.18,12.7,25.56,4.16,5.7,11.7,8.52,9.96-1.64-1.94-8.45-5.81-16.54-6.68-25.25"/>
      <path class="cls-1" d="M25.36,24.89c3.28.24,6.99.75,9.93-.92.95-.7.44-1.82-1.08-2.36-1.18-.43-2.71-.41-3.81.24-3.4,2.06-1.43,6.44,2.12,6.76,3.88.76,9.35-1.94,12.19-3.8"/>
      <path class="cls-1" d="M43.82,2.59c1.48,7.64-2.41,16.39-1.92,24.28.1,2.4.97,5.61,1.48,7.72"/>
      <path class="cls-1" d="M49.46,2.59c1.48,7.64-2.41,16.39-1.92,24.28.1,2.4.97,5.61,1.48,7.72"/>
      <path class="cls-1" d="M52.93,21.24c.47,9.78,4.09,9.64,5.55-.53.06-.39.52-.71.71-.17.78,3.63,2.22,12.22,3.03,16.82.8,5.9.84,12.81.63,18.95-.26,4.78-.49,7.82-2.3,11.5-4.81,8.1-8.31.54-9.53-6.37-1.52-7.14-1.75-16.02.57-22.84"/>
      <path class="cls-1" d="M73.59,38.82c3.39-9.58,7.45-20.89,12.06-30.15,5.26-10.85,2.76-.65,3.31,7.3.11,5.4,2.4,11.17,4.21,15.99.17.82-.23.86-1.35.55-2.11-.64-4.79-1.34-6.94-1.59-1.81-.23-6.19-.83-5.64-1.02,1.52-.43,11.98-.76,15.02-1.22"/>
      <path class="cls-1" d="M96.93.5c1.63,6.53,2.07,13.5,2.26,20.34.34,4.99.04,9.79,1.22,13.93.34.89.69.92.74,0,.04-1.76-.57-3.88-1.23-5.61-1.18-3.28-3.25-5.88-3.9-7.66-.04-.83,1.59-.09,2.34.05,4.34,1.49,9.73,1.52,13.68-.29"/>
      <path class="cls-1" d="M105.82.5c1.13,7.21,2.18,14.98,2.42,22.32.29,4.59.14,8.21,1.46,12.14.23.59.45.87.59.73.51-3.69-1.69-10.65-3.46-14.38-.25-.59-.7-1.22-.67-1.66.6-.16,1.68.63,2.76.92,4.02,1.5,9.25,1.91,13.36.92"/>
      <path class="cls-1" d="M112.57,21.32c5.89-3.21,9.16-.07,11.47,2.02,3.51,2.93,1.9,6.45-2.84,7.28-3.38,1.11-12.72-1.73-3.16-2.49,2.99-.21,7.08-.74,9.32-2.36"/>
      <path class="cls-1" d="M128.11,16.38c1.02,2.61.88,12.03,1.11,14.32.12.44.15.95.78.74,1.75-1.19-.33-4.57,2.89-10.23,1.46-2.56,4.67-4.83,6.55-3.64,2.06,1.29-.83,5.05-2.86,5.86-2.33,1.3-8.82,1.19-5.91,3,4.57,2.94,12.4-.19,16.33-2.67"/>
    </g>
  </g>
</svg>